HIERARCHY
ROOT Hips
{
  OFFSET 0.557248 95.6966 -1.89756
  CHANNELS 6 Xposition Yposition Zposition Zrotation Xrotation Yrotation
  JOINT Spine
  {
    OFFSET -0.000355721 21.3001 -0.016921
    CHANNELS 3 Zrotation Xrotation Yrotation
    JOINT LeftArm
    {
      OFFSET 13.5181 21.3012 0
      CHANNELS 3 Zrotation Xrotation Yrotation
      JOINT LeftForeArm
      {
        OFFSET 24.5783 0 0
        CHANNELS 3 Zrotation Xrotation Yrotation
        JOINT LeftHand
        {
          OFFSET 24.5783 0 0
          CHANNELS 3 Zrotation Xrotation Yrotation
          End Site
          {
            OFFSET 7.32568 1.52588e-05 0.0169305
          }
        }
      }
    }
    JOINT Head
    {
      OFFSET 0 27.4458 -0.00489235
      CHANNELS 3 Zrotation Xrotation Yrotation
      End Site
      {
        OFFSET 0 0 0
      }
    }
    JOINT RightArm
    {
      OFFSET -13.5174 21.3012 0
      CHANNELS 3 Zrotation Xrotation Yrotation
      JOINT RightForeArm
      {
        OFFSET -24.5783 0 0
        CHANNELS 3 Zrotation Xrotation Yrotation
        JOINT RightHand
        {
          OFFSET -24.5783 0 0
          CHANNELS 3 Zrotation Xrotation Yrotation
          End Site
          {
            OFFSET -7.32568 1.52588e-05 0.0169305
          }
        }
      }
    }
  }
  JOINT RightUpLeg
  {
    OFFSET -8.44614 -9.41038 0.835684
    CHANNELS 3 Zrotation Xrotation Yrotation
    JOINT RightLeg
    {
      OFFSET 0 -40.9639 0
      CHANNELS 3 Zrotation Xrotation Yrotation
      JOINT RightFoot
      {
        OFFSET 0 -40.9639 0
        CHANNELS 3 Zrotation Xrotation Yrotation
        End Site
        {
          OFFSET 0.50614 -9.67405 14.6709
        }
      }
    }
  }
  JOINT LeftUpLeg
  {
    OFFSET 8.44614 -9.41038 0.835684
    CHANNELS 3 Zrotation Xrotation Yrotation
    JOINT LeftLeg
    {
      OFFSET 0 -40.9639 0
      CHANNELS 3 Zrotation Xrotation Yrotation
      JOINT LeftFoot
      {
        OFFSET 0 -40.9639 0
        CHANNELS 3 Zrotation Xrotation Yrotation
        End Site
        {
          OFFSET -0.50614 -9.67405 14.6709
        }
      }
    }
  }
}
MOTION
Frames:	9
Frame Time:	0.0333333
-5.70831 97.0693 345.213 3.44656 6.37019 161.422 -0.108169 2.63067 0.904595 -102.856 45.2907 66.1573 -7.9441 3.26362 -88.5165 51.508 -9.60509 -33.1412 5.14744 7.19943 0.706484 63.1778 -4.37724 41.2274 5.83361 28.0924 136.499 -46.7997 -9.03437 27.2116 2.92599 -17.8226 1.40969 -1.63731 32.1194 -18.4682 6.97831 -11.2039 0.613728 -2.49339 -0.335178 8.50313 -0.413287 28.1338 -6.03359 7.61387 -20.2342 1.23541 
-5.30613 97.0318 344.381 3.12964 6.76822 163.559 -0.0498808 2.78109 0.892011 -103.013 44.4669 66.4767 -7.23364 3.24618 -88.314 51.2272 -9.87347 -33.5857 5.30209 7.77622 0.543261 63.0905 -4.04917 40.6768 5.70094 27.9861 136.62 -47.0224 -9.04015 27.1008 3.38218 -18.914 1.86197 -1.34152 29.9595 -16.7251 6.39814 -9.70685 0.49247 -2.32517 0.753168 8.51933 -0.558761 27.7619 -8.20145 8.12676 -20.447 1.30648 
-4.8785 96.9918 343.415 2.79129 7.01018 165.298 0.0152122 2.87964 0.870761 -103.186 43.9928 66.7461 -6.81399 3.22902 -88.1344 51.1108 -10.1039 -33.9152 5.39258 8.33549 0.48356 62.9861 -3.77375 40.2274 5.59079 27.8996 136.724 -47.2216 -9.03686 26.9979 3.81914 -19.7539 2.06778 -1.16529 27.5993 -15.0003 6.31111 -8.78878 0.428488 -2.16934 1.78174 8.55259 -0.669794 27.3382 -9.88859 8.49603 -20.6131 1.35209 
-4.43274 96.9569 342.302 2.5444 6.94978 166.452 0.0891712 2.91885 0.83911 -103.386 43.9067 66.9588 -6.719 3.21827 -87.9814 51.1776 -10.2929 -34.1166 5.41473 8.89059 0.548172 62.8607 -3.54691 39.8849 5.49137 27.8301 136.829 -47.4023 -9.02306 26.9007 4.23515 -20.3236 1.97415 -1.1492 24.9695 -13.2711 6.80535 -8.53766 0.425504 -2.02105 2.73746 8.60538 -0.732012 26.8671 -11.0483 8.70838 -20.7519 1.37162 
-3.96054 96.919 341.11 2.31751 6.84528 167.566 0.168872 2.92292 0.800519 -103.615 44.0604 67.1446 -6.81648 3.21146 -87.8427 51.3653 -10.4641 -34.2378 5.38245 9.44816 0.694728 62.7118 -3.35255 39.6067 5.6564 28.0087 136.815 -47.5677 -9.0032 26.8078 4.62592 -20.7093 1.70028 -1.12934 22.0758 -11.4911 7.65606 -8.65407 0.458747 -1.87812 3.67744 8.67471 -0.764995 26.3407 -11.8765 8.81826 -20.884 1.37524 
-3.47647 96.8761 339.86 2.09642 6.71633 168.533 0.250774 2.90554 0.758372 -103.864 44.368 67.3139 -7.03781 3.20578 -87.713 51.6298 -10.6224 -34.3078 5.31284 9.99045 0.885694 62.5599 -3.18188 39.3768 5.81708 28.1971 136.815 -47.7171 -8.97967 26.7204 4.99031 -20.9596 1.32728 -1.03639 19.0351 -9.75761 8.70389 -8.96475 0.509313 -1.7449 4.58285 8.75376 -0.781193 25.8278 -12.4924 8.86428 -20.99 1.36732 
-2.99487 96.8263 338.572 1.86416 6.58385 169.247 0.331381 2.88038 0.716041 -104.12 44.7445 67.4752 -7.31537 3.19739 -87.5866 51.9264 -10.7728 -34.3556 5.22498 10.4997 1.08291 62.4064 -3.0421 39.1746 5.9851 28.3878 136.817 -47.8501 -8.95491 26.6396 5.32779 -21.1019 0.938613 -0.828991 15.9569 -8.15435 9.78654 -9.3036 0.558913 -1.6262 5.46182 8.83549 -0.797441 25.3667 -13.015 8.88455 -21.0501 1.3521 
-2.52924 96.7682 337.268 1.60188 6.45152 169.622 0.407245 2.86112 0.676939 -104.371 45.1041 67.6346 -7.58082 3.18155 -87.4583 52.2103 -10.9198 -34.4102 5.14055 10.9581 1.24783 62.269 -2.9269 38.983 6.15863 28.5817 136.806 -47.9664 -8.93127 26.5665 5.62875 -21.187 0.616327 -0.478207 12.9866 -6.75579 10.7331 -9.51405 0.590839 -1.52681 6.33949 8.91279 -0.834789 24.9774 -13.5619 8.91707 -21.0447 1.33384 
-2.02568 96.6132 335.617 1.32065 6.31097 169.733 0.449305 2.80945 0.652724 -104.627 45.9333 67.6834 -8.23196 3.16551 -87.3642 52.6929 -10.9896 -34.317 4.97314 10.8982 1.28658 62.2066 -3.17794 39.0649 6.36495 28.7906 136.727 -47.8686 -8.90421 26.5844 5.48442 -20.8057 0.54308 -0.467202 12.0814 -6.53064 11.1887 -10.0323 0.656268 -1.596 6.8935 8.96385 -0.842899 25.5284 -13.5263 8.8226 -20.3915 1.25125 
